<svg id="Layer_1" data-name="Layer 1" xmlns="http://www.w3.org/2000/svg" viewBox="0 0 1500 255"><defs><style>.cls-1,.cls-7{font-size:101.23px;font-family:Montserrat-ExtraLight, Montserrat;font-weight:200;}.cls-1{fill:#75cc81;}.cls-2{letter-spacing:-0.02em;}.cls-3{letter-spacing:-0.02em;}.cls-4{letter-spacing:0em;}.cls-5{letter-spacing:-0.01em;}.cls-6{letter-spacing:0em;}.cls-14,.cls-7{fill:#8697cb;}.cls-7{letter-spacing:-0.02em;}.cls-8{letter-spacing:-0.01em;}.cls-9{letter-spacing:0em;}.cls-10{fill:#a5a5a4;}.cls-11{fill:#d1d4d1;}.cls-12{fill:#71c285;}.cls-13{fill:#4c8056;}.cls-15{fill:#4fba6f;}.cls-16{fill:#cc4b4c;}.cls-17{fill:#cb8252;}.cls-18{fill:#f29c1f;}</style></defs><title>logo</title><text class="cls-1" transform="translate(351 162.3)"><tspan class="cls-2">F</tspan><tspan x="61.85" y="0">ull</tspan><tspan class="cls-3" x="180.89" y="0">-</tspan><tspan x="217.54" y="0">St</tspan><tspan class="cls-4" x="318.36" y="0">a</tspan><tspan class="cls-5" x="376.97" y="0">c</tspan><tspan class="cls-6" x="431.63" y="0">k </tspan></text><text class="cls-7" transform="translate(861.19 161.04)">C<tspan class="cls-6" x="69.75" y="0">ode </tspan><tspan class="cls-8" x="285.46" y="0">C</tspan><tspan class="cls-9" x="356.73" y="0">amp</tspan></text><path class="cls-10" d="M163.6,65.55a3.19,3.19,0,0,1-3.19-3.19V36.82a3.19,3.19,0,1,1,6.38,0V62.36A3.19,3.19,0,0,1,163.6,65.55Z"/><path class="cls-10" d="M77.4,174.17A3.19,3.19,0,0,1,74.2,171V158.21a3.2,3.2,0,1,1,6.39,0v3.13L93.9,143.46A3.19,3.19,0,0,1,99,147.28L80,172.88A3.22,3.22,0,0,1,77.4,174.17Z"/><path class="cls-10" d="M249.81,174.17a3.21,3.21,0,0,1-2.56-1.28l-19.07-25.61a3.2,3.2,0,0,1,5.13-3.81l13.3,17.87v-3.13a3.2,3.2,0,1,1,6.39,0V171A3.19,3.19,0,0,1,249.81,174.17Z"/><path class="cls-11" d="M147.64,75.13h-2.2a20.74,20.74,0,1,0-39.88-8.58,14.33,14.33,0,1,0-27.2,8.87,9.57,9.57,0,0,0,2.23,18.87h67a9.58,9.58,0,1,0,0-19.16Z"/><path class="cls-12" d="M237.13,148.5l-.09.07v19.15a6.41,6.41,0,0,1-6.39,6.39H96.55a6.41,6.41,0,0,1-6.38-6.39V148.57l-.1-.07L163.6,49.59Z"/><path class="cls-13" d="M163.6,97.48a3.19,3.19,0,0,1-3.19-3.19V68.75a3.19,3.19,0,1,1,6.38,0V94.29A3.19,3.19,0,0,1,163.6,97.48Z"/><path class="cls-14" d="M251.4,65.55A28.72,28.72,0,0,1,211.49,92a28.73,28.73,0,0,0,0-52.94A28.74,28.74,0,0,1,251.4,65.55Z"/><polygon class="cls-13" points="217.88 174.11 109.32 174.11 137.9 123.69 146.9 107.79 163.6 78.32 180.3 107.79 189.3 123.69 217.88 174.11"/><path class="cls-15" d="M146.9,107.79l-9,15.9-28.58,50.42V152A16,16,0,0,1,114,140.71Z"/><path class="cls-15" d="M217.88,152v22.13L189.3,123.69l-9-15.9,32.92,32.92A16,16,0,0,1,217.88,152Z"/><path class="cls-16" d="M185.91,190a28.47,28.47,0,0,0,0-3.2,30.57,30.57,0,0,0-3.41-13.14,57,57,0,0,0-8.81-11c-3.86-4.09-6.76-11.11-1.76-15.53,0,0-3.07-1.1-3.3-1.16a15.28,15.28,0,0,0-7.51-.23c-8.18,2.07-10.27,10.37-8.54,17.43a11.19,11.19,0,0,0-11,2.34,1.18,1.18,0,0,0-.3,1.16,1.17,1.17,0,0,0,.88.81c1,.25,1.9.54,2.83.88a5.9,5.9,0,0,1,4.06,5.83,7.69,7.69,0,0,1-2.4,3.72,16.38,16.38,0,0,0-2.85,4.23,17.24,17.24,0,0,0-1.81,7.68c0,10.72,9.85,19.41,22,19.41a23.5,23.5,0,0,0,16.25-6.35A18.62,18.62,0,0,0,185.91,190Z"/><path class="cls-17" d="M138.06,209.23h51.08a6.39,6.39,0,0,1,6.39,6.38h0a6.39,6.39,0,0,1-6.39,6.39H138.06a6.39,6.39,0,0,1-6.39-6.39h0A6.39,6.39,0,0,1,138.06,209.23Z"/><path class="cls-13" d="M106.77,191.35l-3.83,5.11v-9.58a3.2,3.2,0,0,0-6.39,0v9.58l-3.83-5.11a3.19,3.19,0,0,0-5.11,3.83L97.19,208c0,.06.11.08.15.13a3.29,3.29,0,0,0,.73.61,2.46,2.46,0,0,0,.34.22,3,3,0,0,0,2.67,0,2.46,2.46,0,0,0,.34-.22,3.29,3.29,0,0,0,.73-.61c0-.05.11-.07.15-.13l9.58-12.77a3.19,3.19,0,0,0-5.11-3.83Z"/><path class="cls-13" d="M239,190.71a3.19,3.19,0,0,0-4.47.64l-3.83,5.11v-9.58a3.2,3.2,0,0,0-6.39,0v9.58l-3.83-5.11a3.19,3.19,0,1,0-5.1,3.83L224.9,208c0,.06.11.08.15.13a3.34,3.34,0,0,0,.74.61,1.9,1.9,0,0,0,.33.22,3,3,0,0,0,2.68,0,3.15,3.15,0,0,0,.33-.22,3.29,3.29,0,0,0,.73-.61c0-.05.11-.07.15-.13l9.58-12.77a3.18,3.18,0,0,0-.64-4.47Z"/><path class="cls-18" d="M172,207.86v0h0a24.75,24.75,0,0,1-7.95,1.34,18,18,0,0,1-2.65-.16V209c-5-2.27-10.38-6.33-10.41-11.72a9.34,9.34,0,0,1,3.45-7.12c1.62-1.41,3.6-2.37,5.2-3.77a9.3,9.3,0,0,0,3.23-4.85,30.49,30.49,0,0,0,.28-6.61c0,.16.77.51.9.6a13.32,13.32,0,0,1,5.46,7.73,15.49,15.49,0,0,1,.28,1.79v0a13.75,13.75,0,0,1-3.06,8.33c-.07.13,1.44.74,1.56.77a6.79,6.79,0,0,0,1.79.26,7.07,7.07,0,0,0,3.42-.87,4.29,4.29,0,0,0,1.31-1.27,6.77,6.77,0,0,0,.67-1.7s.67.74.73.83a11.28,11.28,0,0,1,.74,1.31,15.2,15.2,0,0,1,.89,2.53A11.66,11.66,0,0,1,172,207.86Z"/></svg>